<mxfile host="app.diagrams.net" modified="2022-05-14T16:18:21.728Z" agent="5.0 (Windows NT 10.0; Win64; x64) AppleWebKit/537.36 (KHTML, like Gecko) Chrome/101.0.4951.67 Safari/537.36" etag="Ah-eVsNW_EjX0LFs2Et3" version="17.4.1" type="github">
  <diagram id="oYMhSgGtawqQAhh7FVfO" name="Page-1">
    <mxGraphModel dx="1422" dy="762" grid="1" gridSize="10" guides="1" tooltips="1" connect="1" arrows="1" fold="1" page="1" pageScale="1" pageWidth="1654" pageHeight="1169" math="0" shadow="0">
      <root>
        <mxCell id="0" />
        <mxCell id="1" parent="0" />
        <mxCell id="d0GPXLZLOFuXr_xYQRxi-2" value="BOOKS: Книги" style="swimlane;" vertex="1" parent="1">
          <mxGeometry x="30" y="80" width="440" height="200" as="geometry" />
        </mxCell>
        <mxCell id="d0GPXLZLOFuXr_xYQRxi-3" value="ID" style="text;html=1;strokeColor=none;fillColor=none;align=left;verticalAlign=middle;whiteSpace=wrap;rounded=0;fontStyle=1" vertex="1" parent="d0GPXLZLOFuXr_xYQRxi-2">
          <mxGeometry x="40" y="40" width="60" height="30" as="geometry" />
        </mxCell>
        <mxCell id="d0GPXLZLOFuXr_xYQRxi-4" value="INTEGER" style="text;html=1;strokeColor=none;fillColor=none;align=left;verticalAlign=middle;whiteSpace=wrap;rounded=0;fontStyle=1" vertex="1" parent="d0GPXLZLOFuXr_xYQRxi-2">
          <mxGeometry x="140" y="40" width="60" height="30" as="geometry" />
        </mxCell>
        <mxCell id="d0GPXLZLOFuXr_xYQRxi-5" value="Уникальный номер книги" style="text;html=1;strokeColor=none;fillColor=none;align=left;verticalAlign=middle;whiteSpace=wrap;rounded=0;fontStyle=1" vertex="1" parent="d0GPXLZLOFuXr_xYQRxi-2">
          <mxGeometry x="270" y="40" width="150" height="30" as="geometry" />
        </mxCell>
        <mxCell id="d0GPXLZLOFuXr_xYQRxi-6" value="NAME" style="text;html=1;strokeColor=none;fillColor=none;align=left;verticalAlign=middle;whiteSpace=wrap;rounded=0;fontStyle=1" vertex="1" parent="d0GPXLZLOFuXr_xYQRxi-2">
          <mxGeometry x="40" y="70" width="60" height="30" as="geometry" />
        </mxCell>
        <mxCell id="d0GPXLZLOFuXr_xYQRxi-7" value="VARCHAR(150)" style="text;html=1;strokeColor=none;fillColor=none;align=left;verticalAlign=middle;whiteSpace=wrap;rounded=0;fontStyle=1" vertex="1" parent="d0GPXLZLOFuXr_xYQRxi-2">
          <mxGeometry x="140" y="70" width="60" height="30" as="geometry" />
        </mxCell>
        <mxCell id="d0GPXLZLOFuXr_xYQRxi-8" value="Наименование" style="text;html=1;strokeColor=none;fillColor=none;align=left;verticalAlign=middle;whiteSpace=wrap;rounded=0;fontStyle=1" vertex="1" parent="d0GPXLZLOFuXr_xYQRxi-2">
          <mxGeometry x="270" y="70" width="150" height="30" as="geometry" />
        </mxCell>
        <mxCell id="d0GPXLZLOFuXr_xYQRxi-9" value="AUTHORID" style="text;html=1;strokeColor=none;fillColor=none;align=left;verticalAlign=middle;whiteSpace=wrap;rounded=0;fontStyle=1" vertex="1" parent="d0GPXLZLOFuXr_xYQRxi-2">
          <mxGeometry x="40" y="100" width="60" height="30" as="geometry" />
        </mxCell>
        <mxCell id="d0GPXLZLOFuXr_xYQRxi-10" value="INTEGER" style="text;html=1;strokeColor=none;fillColor=none;align=left;verticalAlign=middle;whiteSpace=wrap;rounded=0;fontStyle=1" vertex="1" parent="d0GPXLZLOFuXr_xYQRxi-2">
          <mxGeometry x="140" y="100" width="60" height="30" as="geometry" />
        </mxCell>
        <mxCell id="d0GPXLZLOFuXr_xYQRxi-11" value="Автор(Ссылка)" style="text;html=1;strokeColor=none;fillColor=none;align=left;verticalAlign=middle;whiteSpace=wrap;rounded=0;fontStyle=1" vertex="1" parent="d0GPXLZLOFuXr_xYQRxi-2">
          <mxGeometry x="270" y="100" width="150" height="30" as="geometry" />
        </mxCell>
        <mxCell id="d0GPXLZLOFuXr_xYQRxi-12" value="STYLEID" style="text;html=1;strokeColor=none;fillColor=none;align=left;verticalAlign=middle;whiteSpace=wrap;rounded=0;fontStyle=1" vertex="1" parent="d0GPXLZLOFuXr_xYQRxi-2">
          <mxGeometry x="40" y="130" width="60" height="30" as="geometry" />
        </mxCell>
        <mxCell id="d0GPXLZLOFuXr_xYQRxi-13" value="INTEGER" style="text;html=1;strokeColor=none;fillColor=none;align=left;verticalAlign=middle;whiteSpace=wrap;rounded=0;fontStyle=1" vertex="1" parent="d0GPXLZLOFuXr_xYQRxi-2">
          <mxGeometry x="140" y="130" width="60" height="30" as="geometry" />
        </mxCell>
        <mxCell id="d0GPXLZLOFuXr_xYQRxi-14" value="Стиль(Ссылка)" style="text;html=1;strokeColor=none;fillColor=none;align=left;verticalAlign=middle;whiteSpace=wrap;rounded=0;fontStyle=1" vertex="1" parent="d0GPXLZLOFuXr_xYQRxi-2">
          <mxGeometry x="270" y="130" width="150" height="30" as="geometry" />
        </mxCell>
        <mxCell id="d0GPXLZLOFuXr_xYQRxi-15" value="COST" style="text;html=1;strokeColor=none;fillColor=none;align=left;verticalAlign=middle;whiteSpace=wrap;rounded=0;fontStyle=1" vertex="1" parent="d0GPXLZLOFuXr_xYQRxi-2">
          <mxGeometry x="40" y="160" width="60" height="30" as="geometry" />
        </mxCell>
        <mxCell id="d0GPXLZLOFuXr_xYQRxi-16" value="NUMERIC(15,2)" style="text;html=1;strokeColor=none;fillColor=none;align=left;verticalAlign=middle;whiteSpace=wrap;rounded=0;fontStyle=1" vertex="1" parent="d0GPXLZLOFuXr_xYQRxi-2">
          <mxGeometry x="140" y="160" width="60" height="30" as="geometry" />
        </mxCell>
        <mxCell id="d0GPXLZLOFuXr_xYQRxi-17" value="Стоимость" style="text;html=1;strokeColor=none;fillColor=none;align=left;verticalAlign=middle;whiteSpace=wrap;rounded=0;fontStyle=1" vertex="1" parent="d0GPXLZLOFuXr_xYQRxi-2">
          <mxGeometry x="270" y="160" width="150" height="30" as="geometry" />
        </mxCell>
        <mxCell id="d0GPXLZLOFuXr_xYQRxi-18" value="" style="sketch=0;pointerEvents=1;shadow=0;dashed=0;html=1;strokeColor=none;labelPosition=center;verticalLabelPosition=bottom;verticalAlign=top;outlineConnect=0;align=center;shape=mxgraph.office.security.key_permissions;fillColor=#DA4026;" vertex="1" parent="d0GPXLZLOFuXr_xYQRxi-2">
          <mxGeometry x="20" y="43.5" width="10" height="23" as="geometry" />
        </mxCell>
        <mxCell id="d0GPXLZLOFuXr_xYQRxi-80" style="edgeStyle=orthogonalEdgeStyle;rounded=0;orthogonalLoop=1;jettySize=auto;html=1;exitX=0.5;exitY=0;exitDx=0;exitDy=0;entryX=0.5;entryY=1;entryDx=0;entryDy=0;" edge="1" parent="1" source="d0GPXLZLOFuXr_xYQRxi-21" target="d0GPXLZLOFuXr_xYQRxi-2">
          <mxGeometry relative="1" as="geometry" />
        </mxCell>
        <mxCell id="d0GPXLZLOFuXr_xYQRxi-81" style="edgeStyle=orthogonalEdgeStyle;rounded=0;orthogonalLoop=1;jettySize=auto;html=1;exitX=0.5;exitY=1;exitDx=0;exitDy=0;entryX=0.5;entryY=0;entryDx=0;entryDy=0;" edge="1" parent="1" source="d0GPXLZLOFuXr_xYQRxi-21" target="d0GPXLZLOFuXr_xYQRxi-59">
          <mxGeometry relative="1" as="geometry" />
        </mxCell>
        <mxCell id="d0GPXLZLOFuXr_xYQRxi-82" style="edgeStyle=orthogonalEdgeStyle;rounded=0;orthogonalLoop=1;jettySize=auto;html=1;exitX=1;exitY=0.5;exitDx=0;exitDy=0;entryX=0;entryY=0.5;entryDx=0;entryDy=0;" edge="1" parent="1" source="d0GPXLZLOFuXr_xYQRxi-21" target="d0GPXLZLOFuXr_xYQRxi-40">
          <mxGeometry relative="1" as="geometry" />
        </mxCell>
        <mxCell id="d0GPXLZLOFuXr_xYQRxi-21" value="DISTRIBUTION: Распределение книг" style="swimlane;" vertex="1" parent="1">
          <mxGeometry x="30" y="330" width="440" height="140" as="geometry" />
        </mxCell>
        <mxCell id="d0GPXLZLOFuXr_xYQRxi-22" value="BOOKID" style="text;html=1;strokeColor=none;fillColor=none;align=left;verticalAlign=middle;whiteSpace=wrap;rounded=0;fontStyle=1" vertex="1" parent="d0GPXLZLOFuXr_xYQRxi-21">
          <mxGeometry x="40" y="40" width="60" height="30" as="geometry" />
        </mxCell>
        <mxCell id="d0GPXLZLOFuXr_xYQRxi-23" value="INTEGER" style="text;html=1;strokeColor=none;fillColor=none;align=left;verticalAlign=middle;whiteSpace=wrap;rounded=0;fontStyle=1" vertex="1" parent="d0GPXLZLOFuXr_xYQRxi-21">
          <mxGeometry x="140" y="40" width="60" height="30" as="geometry" />
        </mxCell>
        <mxCell id="d0GPXLZLOFuXr_xYQRxi-24" value="Книга(Ссылка)" style="text;html=1;strokeColor=none;fillColor=none;align=left;verticalAlign=middle;whiteSpace=wrap;rounded=0;fontStyle=1" vertex="1" parent="d0GPXLZLOFuXr_xYQRxi-21">
          <mxGeometry x="270" y="40" width="150" height="30" as="geometry" />
        </mxCell>
        <mxCell id="d0GPXLZLOFuXr_xYQRxi-25" value="SUBSCRIBERID" style="text;html=1;strokeColor=none;fillColor=none;align=left;verticalAlign=middle;whiteSpace=wrap;rounded=0;fontStyle=1" vertex="1" parent="d0GPXLZLOFuXr_xYQRxi-21">
          <mxGeometry x="40" y="70" width="60" height="30" as="geometry" />
        </mxCell>
        <mxCell id="d0GPXLZLOFuXr_xYQRxi-26" value="INTEGER" style="text;html=1;strokeColor=none;fillColor=none;align=left;verticalAlign=middle;whiteSpace=wrap;rounded=0;fontStyle=1" vertex="1" parent="d0GPXLZLOFuXr_xYQRxi-21">
          <mxGeometry x="140" y="70" width="60" height="30" as="geometry" />
        </mxCell>
        <mxCell id="d0GPXLZLOFuXr_xYQRxi-27" value="Абонент(Ссылка)" style="text;html=1;strokeColor=none;fillColor=none;align=left;verticalAlign=middle;whiteSpace=wrap;rounded=0;fontStyle=1" vertex="1" parent="d0GPXLZLOFuXr_xYQRxi-21">
          <mxGeometry x="270" y="70" width="150" height="30" as="geometry" />
        </mxCell>
        <mxCell id="d0GPXLZLOFuXr_xYQRxi-28" value="DELIVERYID" style="text;html=1;strokeColor=none;fillColor=none;align=left;verticalAlign=middle;whiteSpace=wrap;rounded=0;fontStyle=1" vertex="1" parent="d0GPXLZLOFuXr_xYQRxi-21">
          <mxGeometry x="40" y="100" width="60" height="30" as="geometry" />
        </mxCell>
        <mxCell id="d0GPXLZLOFuXr_xYQRxi-29" value="INTEGER" style="text;html=1;strokeColor=none;fillColor=none;align=left;verticalAlign=middle;whiteSpace=wrap;rounded=0;fontStyle=1" vertex="1" parent="d0GPXLZLOFuXr_xYQRxi-21">
          <mxGeometry x="140" y="100" width="60" height="30" as="geometry" />
        </mxCell>
        <mxCell id="d0GPXLZLOFuXr_xYQRxi-30" value="Выдача книг(Ссылка)" style="text;html=1;strokeColor=none;fillColor=none;align=left;verticalAlign=middle;whiteSpace=wrap;rounded=0;fontStyle=1" vertex="1" parent="d0GPXLZLOFuXr_xYQRxi-21">
          <mxGeometry x="270" y="100" width="150" height="30" as="geometry" />
        </mxCell>
        <mxCell id="d0GPXLZLOFuXr_xYQRxi-37" value="" style="sketch=0;pointerEvents=1;shadow=0;dashed=0;html=1;strokeColor=none;labelPosition=center;verticalLabelPosition=bottom;verticalAlign=top;outlineConnect=0;align=center;shape=mxgraph.office.security.key_permissions;fillColor=#DA4026;" vertex="1" parent="d0GPXLZLOFuXr_xYQRxi-21">
          <mxGeometry x="10" y="103.5" width="10" height="23" as="geometry" />
        </mxCell>
        <mxCell id="d0GPXLZLOFuXr_xYQRxi-38" value="" style="sketch=0;pointerEvents=1;shadow=0;dashed=0;html=1;strokeColor=none;labelPosition=center;verticalLabelPosition=bottom;verticalAlign=top;outlineConnect=0;align=center;shape=mxgraph.office.security.key_permissions;fillColor=#7FBA42;" vertex="1" parent="d0GPXLZLOFuXr_xYQRxi-21">
          <mxGeometry x="20" y="103.5" width="10" height="23" as="geometry" />
        </mxCell>
        <mxCell id="d0GPXLZLOFuXr_xYQRxi-83" value="" style="sketch=0;pointerEvents=1;shadow=0;dashed=0;html=1;strokeColor=none;labelPosition=center;verticalLabelPosition=bottom;verticalAlign=top;outlineConnect=0;align=center;shape=mxgraph.office.security.key_permissions;fillColor=#DA4026;" vertex="1" parent="d0GPXLZLOFuXr_xYQRxi-21">
          <mxGeometry x="10" y="73.5" width="10" height="23" as="geometry" />
        </mxCell>
        <mxCell id="d0GPXLZLOFuXr_xYQRxi-84" value="" style="sketch=0;pointerEvents=1;shadow=0;dashed=0;html=1;strokeColor=none;labelPosition=center;verticalLabelPosition=bottom;verticalAlign=top;outlineConnect=0;align=center;shape=mxgraph.office.security.key_permissions;fillColor=#7FBA42;" vertex="1" parent="d0GPXLZLOFuXr_xYQRxi-21">
          <mxGeometry x="20" y="73.5" width="10" height="23" as="geometry" />
        </mxCell>
        <mxCell id="d0GPXLZLOFuXr_xYQRxi-85" value="" style="sketch=0;pointerEvents=1;shadow=0;dashed=0;html=1;strokeColor=none;labelPosition=center;verticalLabelPosition=bottom;verticalAlign=top;outlineConnect=0;align=center;shape=mxgraph.office.security.key_permissions;fillColor=#DA4026;" vertex="1" parent="d0GPXLZLOFuXr_xYQRxi-21">
          <mxGeometry x="10" y="43.5" width="10" height="23" as="geometry" />
        </mxCell>
        <mxCell id="d0GPXLZLOFuXr_xYQRxi-86" value="" style="sketch=0;pointerEvents=1;shadow=0;dashed=0;html=1;strokeColor=none;labelPosition=center;verticalLabelPosition=bottom;verticalAlign=top;outlineConnect=0;align=center;shape=mxgraph.office.security.key_permissions;fillColor=#7FBA42;" vertex="1" parent="d0GPXLZLOFuXr_xYQRxi-21">
          <mxGeometry x="20" y="43.5" width="10" height="23" as="geometry" />
        </mxCell>
        <mxCell id="d0GPXLZLOFuXr_xYQRxi-40" value="DELIVERY: Выдача книг" style="swimlane;" vertex="1" parent="1">
          <mxGeometry x="560" y="330" width="440" height="140" as="geometry" />
        </mxCell>
        <mxCell id="d0GPXLZLOFuXr_xYQRxi-41" value="ID" style="text;html=1;strokeColor=none;fillColor=none;align=left;verticalAlign=middle;whiteSpace=wrap;rounded=0;fontStyle=1" vertex="1" parent="d0GPXLZLOFuXr_xYQRxi-40">
          <mxGeometry x="40" y="40" width="60" height="30" as="geometry" />
        </mxCell>
        <mxCell id="d0GPXLZLOFuXr_xYQRxi-42" value="INTEGER" style="text;html=1;strokeColor=none;fillColor=none;align=left;verticalAlign=middle;whiteSpace=wrap;rounded=0;fontStyle=1" vertex="1" parent="d0GPXLZLOFuXr_xYQRxi-40">
          <mxGeometry x="140" y="40" width="60" height="30" as="geometry" />
        </mxCell>
        <mxCell id="d0GPXLZLOFuXr_xYQRxi-43" value="Уникальный номер" style="text;html=1;strokeColor=none;fillColor=none;align=left;verticalAlign=middle;whiteSpace=wrap;rounded=0;fontStyle=1" vertex="1" parent="d0GPXLZLOFuXr_xYQRxi-40">
          <mxGeometry x="270" y="40" width="150" height="30" as="geometry" />
        </mxCell>
        <mxCell id="d0GPXLZLOFuXr_xYQRxi-44" value="DELIVERIDATE" style="text;html=1;strokeColor=none;fillColor=none;align=left;verticalAlign=middle;whiteSpace=wrap;rounded=0;fontStyle=1" vertex="1" parent="d0GPXLZLOFuXr_xYQRxi-40">
          <mxGeometry x="40" y="70" width="60" height="30" as="geometry" />
        </mxCell>
        <mxCell id="d0GPXLZLOFuXr_xYQRxi-45" value="TIMESTAMP" style="text;html=1;strokeColor=none;fillColor=none;align=left;verticalAlign=middle;whiteSpace=wrap;rounded=0;fontStyle=1" vertex="1" parent="d0GPXLZLOFuXr_xYQRxi-40">
          <mxGeometry x="140" y="70" width="60" height="30" as="geometry" />
        </mxCell>
        <mxCell id="d0GPXLZLOFuXr_xYQRxi-46" value="Дата выдачи" style="text;html=1;strokeColor=none;fillColor=none;align=left;verticalAlign=middle;whiteSpace=wrap;rounded=0;fontStyle=1" vertex="1" parent="d0GPXLZLOFuXr_xYQRxi-40">
          <mxGeometry x="270" y="70" width="150" height="30" as="geometry" />
        </mxCell>
        <mxCell id="d0GPXLZLOFuXr_xYQRxi-47" value="RETURNDATE" style="text;html=1;strokeColor=none;fillColor=none;align=left;verticalAlign=middle;whiteSpace=wrap;rounded=0;fontStyle=1" vertex="1" parent="d0GPXLZLOFuXr_xYQRxi-40">
          <mxGeometry x="40" y="100" width="60" height="30" as="geometry" />
        </mxCell>
        <mxCell id="d0GPXLZLOFuXr_xYQRxi-48" value="TIMESTAMP" style="text;html=1;strokeColor=none;fillColor=none;align=left;verticalAlign=middle;whiteSpace=wrap;rounded=0;fontStyle=1" vertex="1" parent="d0GPXLZLOFuXr_xYQRxi-40">
          <mxGeometry x="140" y="100" width="60" height="30" as="geometry" />
        </mxCell>
        <mxCell id="d0GPXLZLOFuXr_xYQRxi-49" value="Дата возврата" style="text;html=1;strokeColor=none;fillColor=none;align=left;verticalAlign=middle;whiteSpace=wrap;rounded=0;fontStyle=1" vertex="1" parent="d0GPXLZLOFuXr_xYQRxi-40">
          <mxGeometry x="270" y="100" width="150" height="30" as="geometry" />
        </mxCell>
        <mxCell id="d0GPXLZLOFuXr_xYQRxi-56" value="" style="sketch=0;pointerEvents=1;shadow=0;dashed=0;html=1;strokeColor=none;labelPosition=center;verticalLabelPosition=bottom;verticalAlign=top;outlineConnect=0;align=center;shape=mxgraph.office.security.key_permissions;fillColor=#DA4026;" vertex="1" parent="d0GPXLZLOFuXr_xYQRxi-40">
          <mxGeometry x="20" y="43.5" width="10" height="23" as="geometry" />
        </mxCell>
        <mxCell id="d0GPXLZLOFuXr_xYQRxi-59" value="SUBSCRIBERS: Абоненты" style="swimlane;" vertex="1" parent="1">
          <mxGeometry x="30" y="550" width="440" height="120" as="geometry" />
        </mxCell>
        <mxCell id="d0GPXLZLOFuXr_xYQRxi-60" value="ID" style="text;html=1;strokeColor=none;fillColor=none;align=left;verticalAlign=middle;whiteSpace=wrap;rounded=0;fontStyle=1" vertex="1" parent="d0GPXLZLOFuXr_xYQRxi-59">
          <mxGeometry x="40" y="40" width="60" height="30" as="geometry" />
        </mxCell>
        <mxCell id="d0GPXLZLOFuXr_xYQRxi-61" value="INTEGER" style="text;html=1;strokeColor=none;fillColor=none;align=left;verticalAlign=middle;whiteSpace=wrap;rounded=0;fontStyle=1" vertex="1" parent="d0GPXLZLOFuXr_xYQRxi-59">
          <mxGeometry x="140" y="40" width="60" height="30" as="geometry" />
        </mxCell>
        <mxCell id="d0GPXLZLOFuXr_xYQRxi-62" value="Уникальный номер" style="text;html=1;strokeColor=none;fillColor=none;align=left;verticalAlign=middle;whiteSpace=wrap;rounded=0;fontStyle=1" vertex="1" parent="d0GPXLZLOFuXr_xYQRxi-59">
          <mxGeometry x="270" y="40" width="150" height="30" as="geometry" />
        </mxCell>
        <mxCell id="d0GPXLZLOFuXr_xYQRxi-63" value="NAME" style="text;html=1;strokeColor=none;fillColor=none;align=left;verticalAlign=middle;whiteSpace=wrap;rounded=0;fontStyle=1" vertex="1" parent="d0GPXLZLOFuXr_xYQRxi-59">
          <mxGeometry x="40" y="70" width="60" height="30" as="geometry" />
        </mxCell>
        <mxCell id="d0GPXLZLOFuXr_xYQRxi-64" value="VARCHAR(150)" style="text;html=1;strokeColor=none;fillColor=none;align=left;verticalAlign=middle;whiteSpace=wrap;rounded=0;fontStyle=1" vertex="1" parent="d0GPXLZLOFuXr_xYQRxi-59">
          <mxGeometry x="140" y="70" width="60" height="30" as="geometry" />
        </mxCell>
        <mxCell id="d0GPXLZLOFuXr_xYQRxi-65" value="ФИО абонента" style="text;html=1;strokeColor=none;fillColor=none;align=left;verticalAlign=middle;whiteSpace=wrap;rounded=0;fontStyle=1" vertex="1" parent="d0GPXLZLOFuXr_xYQRxi-59">
          <mxGeometry x="270" y="70" width="150" height="30" as="geometry" />
        </mxCell>
        <mxCell id="d0GPXLZLOFuXr_xYQRxi-75" value="" style="sketch=0;pointerEvents=1;shadow=0;dashed=0;html=1;strokeColor=none;labelPosition=center;verticalLabelPosition=bottom;verticalAlign=top;outlineConnect=0;align=center;shape=mxgraph.office.security.key_permissions;fillColor=#DA4026;" vertex="1" parent="d0GPXLZLOFuXr_xYQRxi-59">
          <mxGeometry x="20" y="43.5" width="10" height="23" as="geometry" />
        </mxCell>
      </root>
    </mxGraphModel>
  </diagram>
</mxfile>
